<?xml version="1.0" encoding="iso-8859-1"?>
<!-- Generator: Adobe Illustrator 15.1.0, SVG Export Plug-In . SVG Version: 6.00 Build 0)  -->
<!DOCTYPE svg PUBLIC "-//W3C//DTD SVG 1.1//EN" "http://www.w3.org/Graphics/SVG/1.1/DTD/svg11.dtd">
<svg version="1.1" id="Ebene_1" xmlns="http://www.w3.org/2000/svg" xmlns:xlink="http://www.w3.org/1999/xlink" x="0px" y="0px"
	 width="40px" height="50px" viewBox="0 0 50 50" style="enable-background:new 0 0 50 50;fill:#00395c" xml:space="preserve">
<g>
	<rect style="fill:none;" width="50" height="50"/>
	<path id="path63519_2_" d="M8.371,16.019l-3.07,8.775h5.563v-8.775H8.371z M11.227,16.019v8.775h5.605l-3.07-8.775H11.227z
		 M5.176,25.156L2.087,33.98h4.472l1.27-3.585h3.036v-5.239H5.176z M11.227,25.156v5.239h3.078l1.238,3.585h4.502l-3.088-8.824
		H11.227z M21.283,16.019v8.775h5.232v-8.775H21.283z M26.875,16.019v8.775h5.463c-0.516-0.515-1.136-0.924-1.825-1.196
		c1.235-0.691,2.069-2.014,2.069-3.531c0-2.235-1.809-4.048-4.043-4.048c-0.019,0-0.035,0-0.053,0H26.875z M21.283,25.156v8.824
		h5.232v-8.824H21.283z M26.875,25.156v8.824h1.611c0.018,0.001,0.034,0,0.053,0c2.972,0,5.381-2.406,5.381-5.378
		c0-1.312-0.472-2.513-1.254-3.446H26.875z M35.282,16.019v8.775h5.2v-8.775H35.282z M40.844,16.019v8.775h5.487
		c-0.516-0.515-1.135-0.924-1.823-1.196c1.236-0.691,2.074-2.014,2.074-3.531c0-2.235-1.813-4.048-4.049-4.048
		c-0.016,0-0.033,0-0.048,0H40.844z M35.282,25.156v8.824h5.2v-8.824H35.282z M40.844,25.156v8.824h1.642
		c0.015,0.001,0.032,0,0.048,0c2.972,0,5.379-2.406,5.379-5.378c0-1.312-0.47-2.513-1.25-3.446H40.844z"/>
</g>
</svg>
