<?xml version="1.0" encoding="iso-8859-1"?>
<!-- Generator: Adobe Illustrator 15.1.0, SVG Export Plug-In . SVG Version: 6.00 Build 0)  -->
<!DOCTYPE svg PUBLIC "-//W3C//DTD SVG 1.1//EN" "http://www.w3.org/Graphics/SVG/1.1/DTD/svg11.dtd">
<svg version="1.1" id="Ebene_1" xmlns="http://www.w3.org/2000/svg" xmlns:xlink="http://www.w3.org/1999/xlink" x="0px" y="0px"
	 width="50px" height="50px" viewBox="0 0 50 50" style="enable-background:new 0 0 50 50;" xml:space="preserve">
<g>
	<rect style="fill:none;" width="50" height="50"/>
	<g>
		<path style="fill:#fff" d="M11.778,29.381c0,1.029,0.05,2.039,0.173,2.847h-1.938l-0.171-1.495H9.766c-0.662,0.931-1.938,1.766-3.631,1.766
			c-2.406,0-3.635-1.693-3.635-3.412c0-2.871,2.553-4.442,7.143-4.418v-0.243c0-0.959-0.269-2.752-2.7-2.729
			c-1.128,0-2.281,0.322-3.116,0.887l-0.491-1.451c0.982-0.612,2.431-1.03,3.928-1.03c3.633,0,4.516,2.481,4.516,4.836V29.381z
			 M9.694,26.167c-2.358-0.052-5.033,0.366-5.033,2.673c0,1.424,0.933,2.063,2.013,2.063c1.57,0,2.577-0.981,2.921-1.987
			c0.073-0.246,0.1-0.489,0.1-0.688V26.167z"/>
		<path style="fill:#fff" d="M25.2,28.963c0,1.252,0.024,2.334,0.098,3.265h-1.913l-0.123-1.937h-0.05c-0.539,0.955-1.816,2.207-3.928,2.207
			c-1.865,0-4.101-1.054-4.101-5.202v-6.947h2.162v6.554c0,2.259,0.712,3.806,2.65,3.806c1.447,0,2.454-1.009,2.848-1.988
			c0.123-0.294,0.195-0.688,0.195-1.105v-7.266H25.2V28.963z"/>
		<path style="fill:#fff"  d="M31.378,17.501v2.848h3.093v1.646h-3.093v6.404c0,1.475,0.417,2.31,1.62,2.31c0.589,0,0.934-0.051,1.253-0.15l0.096,1.646
			c-0.415,0.147-1.078,0.294-1.913,0.294c-1.006,0-1.817-0.342-2.332-0.906c-0.589-0.664-0.834-1.719-0.834-3.118v-6.479h-1.841
			v-1.646h1.841v-2.208L31.378,17.501z"/>
		<path style="fill:#fff"  d="M47.5,26.19c0,4.395-3.068,6.308-5.914,6.308c-3.193,0-5.695-2.354-5.695-6.112c0-3.95,2.625-6.284,5.891-6.284
			C45.193,20.102,47.5,22.583,47.5,26.19z M38.098,26.313c0,2.602,1.474,4.565,3.584,4.565c2.063,0,3.609-1.94,3.609-4.616
			c0-2.013-1.007-4.538-3.559-4.538C39.203,21.725,38.098,24.079,38.098,26.313z"/>
	</g>
</g>
</svg>
