<?xml version="1.0" encoding="iso-8859-1"?>
<!-- Generator: Adobe Illustrator 15.1.0, SVG Export Plug-In . SVG Version: 6.00 Build 0)  -->
<!DOCTYPE svg PUBLIC "-//W3C//DTD SVG 1.1//EN" "http://www.w3.org/Graphics/SVG/1.1/DTD/svg11.dtd">
<svg version="1.1" id="Ebene_1" xmlns="http://www.w3.org/2000/svg" xmlns:xlink="http://www.w3.org/1999/xlink" x="0px" y="0px"
	 width="40px" height="50px" viewBox="0 0 50 50" style="enable-background:new 0 0 50 50;fill:#00395c" xml:space="preserve">
<g>
	<rect style="fill:none;" width="50" height="50"/>
	<path d="M30.853,22.967H19.17c-1.035,0-1.875,0.844-1.875,1.877c0,1.039,0.84,1.877,1.875,1.877h11.683
		c1.036,0,1.877-0.838,1.877-1.877C32.729,23.811,31.889,22.967,30.853,22.967z M21.646,21.025c0.256,0.152,0.547,0.197,0.863,0.197
		c0.925,0,1.674-0.75,1.674-1.674c0-0.772-0.645-1.416-1.241-1.613c-1.276-0.8-2.229-2.089-2.229-3.792
		c0-2.364,1.914-4.28,4.279-4.28c2.363,0,4.281,1.916,4.281,4.28c0,1.708-1.04,3.188-2.49,3.877
		c-0.596,0.254-1.006,0.843-1.006,1.528c0,0.924,0.744,1.674,1.668,1.674c0.164,0,0.324-0.025,0.474-0.068
		c2.742-1.168,4.669-3.886,4.669-7.051c0-4.231-3.431-7.658-7.66-7.658c-4.23,0-7.658,3.427-7.658,7.658
		C17.27,17.156,19.06,19.796,21.646,21.025z M28.073,21.102c-0.048,0.018-0.101,0.036-0.154,0.053
		c-0.013,0.004-0.027,0.01-0.042,0.02L28.073,21.102z M30.121,28.779H27.41c-0.945,0-1.711,0.766-1.711,1.709
		s0.766,1.681,1.711,1.681h1.218l-3.753,6.118l-3.545-6.118h1.221c0.945,0,1.709-0.737,1.709-1.681s-0.764-1.709-1.709-1.709h-2.712
		c-1.407,0-2.544,1.111-2.544,2.515c0,0.427,0.183,0.798,0.289,1.184l0.02,0.001l6.016,10.383c0.297,0.41,0.761,0.694,1.309,0.694
		c0.544,0,1.033-0.269,1.33-0.683l6.104-10.395c0.19-0.359,0.302-0.751,0.302-1.185C32.664,29.891,31.523,28.779,30.121,28.779z"/>
</g>
</svg>
