<?xml version="1.0" encoding="iso-8859-1"?>
<!-- Generator: Adobe Illustrator 15.1.0, SVG Export Plug-In . SVG Version: 6.00 Build 0)  -->
<!DOCTYPE svg PUBLIC "-//W3C//DTD SVG 1.1//EN" "http://www.w3.org/Graphics/SVG/1.1/DTD/svg11.dtd">
<svg version="1.1" id="Ebene_1" xmlns="http://www.w3.org/2000/svg" xmlns:xlink="http://www.w3.org/1999/xlink" x="0px" y="0px"
	 width="50px" height="50px" viewBox="0 0 50 50" style="enable-background:new 0 0 50 50;" xml:space="preserve">
<g>
	<rect style="fill:none;" width="50" height="50"/>
	<path style="fill:none;stroke:#fff;stroke-width:3;stroke-miterlimit:10;" d="M39.535,27.465l-0.162-0.134
		c-1.686-1.28-3.416-1.21-5.238-1.132l-0.973,0.034c-0.01,0-0.33,0.006-0.33,0.006c-1.83,0.044-3.609,0.052-5.33-0.356
		c-0.025-0.006-0.256-0.058-0.256-0.058c-0.637-0.146-1.207-0.366-1.734-0.657c2.668-2.802,4.098-6.424,4.111-9.978
		c0.004-1.978-0.426-3.932-1.328-5.708l-0.012-0.01l-0.002-0.014c-1.297-2.3-3.133-3.433-5.035-3.104
		c-2.051,0.354-3.787,2.361-4.229,4.88c0,0.004-0.031,0.202-0.031,0.202c-0.266,2.113,0.664,3.574,1.648,5.125l0.506,0.813
		l0.174,0.279c0.949,1.555,1.838,3.095,2.354,4.792c0.004,0.017,0.088,0.271,0.088,0.271c0.184,0.609,0.279,1.213,0.289,1.82
		c-5.85-1.416-11.928,0.749-14.977,5.423c0,0.004,0,0.011-0.004,0.015l-0.01,0.009c-0.697,1.182-1.049,2.336-1.051,3.371
		c-0.006,0.963,0.289,1.831,0.883,2.542c1.332,1.602,3.939,2.103,6.336,1.223c0.006-0.003,0.201-0.08,0.201-0.08
		c1.959-0.817,2.758-2.359,3.607-3.983l0.447-0.846l0.158-0.291c0.877-1.602,1.764-3.15,2.973-4.434
		c0.016-0.016,0.186-0.2,0.186-0.2c0.439-0.478,0.918-0.866,1.436-1.173c1.701,5.774,6.611,9.953,12.186,10.258
		c0.012,0,0.031,0,0.031,0c2.641,0.027,4.539-0.999,5.201-2.811c0.172-0.455,0.248-0.938,0.252-1.437
		C41.904,30.487,41.043,28.716,39.535,27.465z"/>
</g>
</svg>
