<?xml version="1.0" encoding="iso-8859-1"?>
<!-- Generator: Adobe Illustrator 15.1.0, SVG Export Plug-In . SVG Version: 6.00 Build 0)  -->
<!DOCTYPE svg PUBLIC "-//W3C//DTD SVG 1.1//EN" "http://www.w3.org/Graphics/SVG/1.1/DTD/svg11.dtd">
<svg version="1.1" id="Ebene_1" xmlns="http://www.w3.org/2000/svg" xmlns:xlink="http://www.w3.org/1999/xlink" x="0px" y="0px"
	 width="50px" height="50px" viewBox="0 0 50 50" style="enable-background:new 0 0 50 50;" xml:space="preserve">
<g>
	<path style="fill:#fff" d="M14.049,37.148c-1.745,0-3.295-0.659-4.249-1.807c-0.656-0.787-0.999-1.772-0.994-2.847
		c0.003-1.055,0.344-2.212,0.989-3.355v-0.019l0.186-0.283c2.373-3.563,6.535-5.687,11.162-5.687c0.827,0,1.656,0.071,2.475,0.209
		c-0.034-0.177-0.08-0.356-0.134-0.537c0,0.001,0,0.001,0,0.001s-0.048-0.152-0.077-0.252l-0.004,0.001
		c-0.459-1.512-1.26-2.889-2.111-4.283l-0.629-1.01c-0.944-1.49-1.919-3.026-1.639-5.253l0.032-0.225
		c0.466-2.65,2.335-4.767,4.544-5.146c2.061-0.354,4.057,0.809,5.419,3.176l0.009,0.016c0.012,0.021,0.023,0.043,0.035,0.063
		l0.077,0.151c0.845,1.701,1.271,3.567,1.267,5.549c-0.012,3.209-1.216,6.437-3.332,9.004c0.175,0.059,0.355,0.108,0.54,0.152
		l0.243,0.053c1.23,0.293,2.504,0.331,3.472,0.331c0.428,0,0.858-0.009,1.293-0.02l1.202-0.038c0.403-0.017,0.808-0.033,1.208-0.033
		c1.241,0,2.705,0.146,4.142,1.238l0.172,0.141c1.555,1.291,2.479,3.127,2.475,4.915c-0.003,0.569-0.098,1.106-0.282,1.599
		c-0.718,1.968-2.703,3.099-5.444,3.099l0,0h-0.102c-5.229-0.284-9.81-3.886-11.738-9.079c-0.134,0.121-0.268,0.251-0.396,0.391
		l-0.179,0.196c-1.054,1.119-1.854,2.514-2.648,3.965l-0.562,1.046c-0.82,1.572-1.661,3.184-3.726,4.045l-0.185,0.074
		C15.721,36.997,14.888,37.148,14.049,37.148z"/>
	<rect style="fill:none;" width="50" height="50"/>
</g>
</svg>
