<?xml version="1.0" encoding="iso-8859-1"?>
<!-- Generator: Adobe Illustrator 21.0.2, SVG Export Plug-In . SVG Version: 6.00 Build 0)  -->
<svg version="1.1" id="Layer_1" xmlns="http://www.w3.org/2000/svg" xmlns:xlink="http://www.w3.org/1999/xlink" x="0px" y="0px"
	 viewBox="0 0 49.595 49.595" style="enable-background:new 0 0 49.595 49.595;fill:#00395c" xml:space="preserve">
<g>
	<rect style="fill:none;" width="49.595" height="49.595"/>
	<path d="M33.439,17.095h-9.272c-3.846,0-6.964,3.118-6.964,6.964v9.272c0,3.846,3.118,6.964,6.964,6.964h9.272
		c3.846,0,6.964-3.118,6.964-6.964v-9.272C40.403,20.213,37.285,17.095,33.439,17.095z M32.253,37.111h-6.828
		c-2.608,0-4.774-2.275-5.115-4.094h17.058C37.026,34.836,34.86,37.111,32.253,37.111z M20.31,24.374
		c0.341-1.82,2.508-4.549,5.115-4.549h6.828c2.607,0,4.774,2.729,5.115,4.549H20.31z M12.847,21.468
		c0.793,0,1.434-0.643,1.434-1.435h-2.869C11.413,20.825,12.055,21.468,12.847,21.468z M12.847,7.295
		c-2.513,0-4.552,2.038-4.552,4.552c0,1.464,1.139,2.841,1.139,2.841c0.345,0.416,0.725,1.188,0.844,1.716l0.373,1.641
		c0.12,0.527,0.66,0.958,1.2,0.958h1.99c0.541,0,1.081-0.432,1.201-0.958l0.374-1.641c0.12-0.528,0.499-1.3,0.844-1.716
		c0,0,1.138-1.377,1.138-2.841C17.399,9.333,15.361,7.295,12.847,7.295z"/>
</g>
</svg>
