<?xml version="1.0" encoding="iso-8859-1"?>
<!-- Generator: Adobe Illustrator 19.1.0, SVG Export Plug-In . SVG Version: 6.00 Build 0)  -->
<svg version="1.1" id="Ebene_1" xmlns="http://www.w3.org/2000/svg" xmlns:xlink="http://www.w3.org/1999/xlink" x="0px" y="0px"
	 viewBox="0 0 50 50" style="enable-background:new 0 0 50 50;" xml:space="preserve">
<g>
	<path style="fill:#fff;" d="M24.188,41.833c-0.654,0.586-1.509,0.953-2.455,0.953c-2.042,0-3.696-1.658-3.696-3.699h3.96
		C22.573,40.12,23.319,41.044,24.188,41.833z M20.956,36.435c-0.144-0.576-0.243-1.167-0.289-1.775h-1.503
		c-0.561,0-1.237-0.539-1.362-1.09l-0.962-4.232c-0.368-1.616-1.481-3.884-2.536-5.161l0.002,0.003
		c-0.027-0.028-2.531-3.125-2.531-6.194c0-2.661,1.035-5.161,2.916-7.043c1.882-1.883,4.382-2.918,7.042-2.918
		c2.662,0,5.162,1.035,7.046,2.918c1.88,1.882,2.918,4.382,2.918,7.043c0,1.577-0.683,3.174-1.257,4.233
		c-0.179,0.331-0.357,0.626-0.52,0.886c0.504-0.072,1.016-0.122,1.537-0.122c0.194,0,0.381,0.018,0.57,0.029
		c0.725-1.354,1.442-3.163,1.442-5.027c0-6.481-5.254-11.734-11.735-11.734C15.254,6.25,10,11.503,10,17.984
		c0,3.773,2.935,7.323,2.935,7.323c0.888,1.073,1.868,3.063,2.178,4.425l0.962,4.232c0.311,1.357,1.701,2.471,3.09,2.471H20.956z
		 M22.46,10.689c-0.04-0.401-0.399-0.693-0.8-0.651c-4.139,0.42-7.434,3.733-7.838,7.874c-0.041,0.402,0.255,0.758,0.655,0.798
		c0.403,0.037,0.757-0.256,0.798-0.658c0.338-3.45,3.08-6.211,6.533-6.563C22.208,11.449,22.5,11.091,22.46,10.689z M39.797,33.821
		c0,4.598-3.737,8.34-8.34,8.34c-4.593,0-8.332-3.742-8.332-8.34c0-4.598,3.739-8.338,8.332-8.338
		C36.06,25.482,39.797,29.223,39.797,33.821z M38.045,33.785c-0.02-3.615-2.965-6.553-6.585-6.553c-0.013,0-0.023,0.004-0.035,0.004
		v6.549H38.045z"/>
	<g>
		<rect style="fill:none;" width="50" height="50"/>
	</g>
</g>
</svg>
