<?xml version="1.0" encoding="iso-8859-1"?>
<!-- Generator: Adobe Illustrator 19.1.0, SVG Export Plug-In . SVG Version: 6.00 Build 0)  -->
<svg version="1.1" id="Ebene_1" xmlns="http://www.w3.org/2000/svg" xmlns:xlink="http://www.w3.org/1999/xlink" x="0px" y="0px"
	 viewBox="0 0 50 50" style="enable-background:new 0 0 50 50;" xml:space="preserve">
<g>
	<path style="fill:#fff;enable-background:new;" d="M25,43.358c2.053,0,3.716-1.666,3.716-3.717h-7.432
		C21.284,41.692,22.948,43.358,25,43.358z M24.927,10.448c-4.159,0.424-7.474,3.754-7.878,7.914
		c-0.042,0.405,0.256,0.763,0.661,0.802c0.401,0.038,0.759-0.258,0.801-0.661c0.339-3.466,3.096-6.242,6.566-6.595
		c0.402-0.042,0.694-0.401,0.654-0.805C25.688,10.7,25.327,10.406,24.927,10.448z M25,6.642c-6.512,0-11.792,5.28-11.792,11.793
		c0,3.792,2.95,7.359,2.95,7.359c0.894,1.079,1.878,3.079,2.188,4.446l0.967,4.252c0.311,1.364,1.712,2.483,3.109,2.483h5.156
		c1.402,0,2.802-1.119,3.111-2.483l0.968-4.252c0.311-1.368,1.293-3.368,2.187-4.446c0,0,2.949-3.568,2.949-7.359
		C36.792,11.921,31.514,6.642,25,6.642z M33.75,22.69c-0.637,1.178-1.274,1.958-1.28,1.968c-1.062,1.283-2.184,3.561-2.553,5.186
		l-0.966,4.253c-0.124,0.553-0.805,1.096-1.373,1.096h-5.156c-0.565,0-1.245-0.543-1.372-1.096l-0.966-4.253
		c-0.37-1.625-1.491-3.903-2.551-5.186l0.003,0.003c-0.025-0.029-2.544-3.14-2.544-6.226c0-2.674,1.041-5.188,2.932-7.078
		C19.815,9.465,22.326,8.424,25,8.424c2.676,0,5.188,1.041,7.08,2.933c1.89,1.891,2.932,4.404,2.932,7.078
		C35.012,20.02,34.326,21.625,33.75,22.69z"/>
	<g>
		<rect style="fill:none;" width="50" height="50"/>
	</g>
</g>
</svg>
