<?xml version="1.0" encoding="iso-8859-1"?>
<!-- Generator: Adobe Illustrator 19.1.0, SVG Export Plug-In . SVG Version: 6.00 Build 0)  -->
<svg version="1.1" id="Ebene_1" xmlns="http://www.w3.org/2000/svg" xmlns:xlink="http://www.w3.org/1999/xlink" x="0px" y="0px"
	 viewBox="0 0 50 50" style="enable-background:new 0 0 50 50;" xml:space="preserve">
<g>
	<rect style="fill:none;" width="50" height="50"/>
	<path style="fill:#fff;" d="M21.284,41.073h7.432c0,2.051-1.664,3.717-3.718,3.717C22.947,44.79,21.284,43.124,21.284,41.073z
		 M36.792,19.866c0,3.792-2.949,7.359-2.949,7.359c-0.893,1.079-1.877,3.078-2.186,4.447l-0.969,4.252
		c-0.311,1.364-1.709,2.483-3.111,2.483H22.42c-1.4,0-2.798-1.119-3.109-2.483l-0.967-4.252c-0.312-1.369-1.297-3.369-2.188-4.447
		c0,0-2.949-3.567-2.949-7.359c0-6.514,5.281-11.793,11.79-11.793C31.513,8.073,36.792,13.352,36.792,19.866z M26.027,11.957
		c-0.064-0.646-0.646-1.125-1.297-1.057c-4.741,0.482-8.519,4.278-8.982,9.022c-0.032,0.313,0.061,0.62,0.26,0.865
		c0.201,0.246,0.486,0.399,0.805,0.431c0.037,0.003,0.076,0.02,0.112,0.005c0.612,0,1.118-0.46,1.178-1.07
		c0.355-3.628,3.244-6.53,6.868-6.899C25.62,13.186,26.095,12.602,26.027,11.957z"/>
</g>
</svg>
