<?xml version="1.0" encoding="iso-8859-1"?>
<!-- Generator: Adobe Illustrator 19.1.0, SVG Export Plug-In . SVG Version: 6.00 Build 0)  -->
<svg version="1.1" id="Ebene_1" xmlns="http://www.w3.org/2000/svg" xmlns:xlink="http://www.w3.org/1999/xlink" x="0px" y="0px"
	 viewBox="0 0 50 50" style="enable-background:new 0 0 50 50;" xml:space="preserve">
<g>
	<g>
		<path style="fill:#fff;" d="M19.166,36.523c-1.388,0-2.781-1.113-3.091-2.471l-0.961-4.23c-0.311-1.362-1.291-3.352-2.178-4.425
			c0,0-2.936-3.55-2.936-7.323c0-6.482,5.254-11.735,11.734-11.735c6.482,0,11.736,5.253,11.736,11.735
			c0,1.863-0.719,3.673-1.443,5.027c-0.188-0.011-0.377-0.029-0.569-0.029c-5.972,0-10.834,4.862-10.834,10.839
			c0,0.901,0.124,1.775,0.332,2.613H19.166z M21.998,39.176h-3.961c0,2.041,1.654,3.698,3.697,3.698
			c0.945,0,1.801-0.365,2.455-0.951C23.32,41.133,22.574,40.208,21.998,39.176z"/>
		<path  style="fill:#fff;" d="M31.488,27.123c3.686,0,6.686,3.001,6.686,6.689s-3,6.686-6.686,6.686c-3.688,0-6.688-2.998-6.688-6.686
			S27.801,27.123,31.488,27.123 M31.488,25.498c-4.59,0-8.315,3.723-8.315,8.314c0,4.59,3.725,8.311,8.315,8.311
			c4.59,0,8.313-3.721,8.313-8.311C39.801,29.221,36.078,25.498,31.488,25.498L31.488,25.498z M31.488,28.5v5.312h5.313
			C36.801,30.88,34.421,28.5,31.488,28.5z"/>
	</g>
	<g>
		<rect style="fill:none;" width="50" height="50"/>
	</g>
</g>
</svg>
