<?xml version="1.0" encoding="iso-8859-1"?>
<!-- Generator: Adobe Illustrator 15.1.0, SVG Export Plug-In . SVG Version: 6.00 Build 0)  -->
<!DOCTYPE svg PUBLIC "-//W3C//DTD SVG 1.1//EN" "http://www.w3.org/Graphics/SVG/1.1/DTD/svg11.dtd">
<svg version="1.1" id="Ebene_1" xmlns="http://www.w3.org/2000/svg" xmlns:xlink="http://www.w3.org/1999/xlink" x="0px" y="0px"
	 width="40px" height="50px" viewBox="0 0 50 50" style="enable-background:new 0 0 50 50;fill:#00395c" xml:space="preserve">
<g>
	<rect style="fill:none;" width="50" height="50"/>
	<g>
		<path d="M27.123,31.47h-4.551c-0.012-0.654-0.018-1.052-0.018-1.195c0-1.477,0.244-2.688,0.732-3.641
			c0.486-0.951,1.463-2.023,2.926-3.213s2.338-1.969,2.623-2.338c0.439-0.581,0.66-1.225,0.66-1.926
			c0-0.977-0.389-1.813-1.168-2.508s-1.83-1.043-3.15-1.043c-1.273,0-2.338,0.361-3.193,1.088c-0.857,0.727-1.445,1.832-1.768,3.318
			l-4.604-0.57c0.131-2.129,1.039-3.938,2.721-5.426c1.684-1.486,3.895-2.23,6.631-2.23c2.879,0,5.168,0.754,6.869,2.258
			c1.701,1.506,2.553,3.258,2.553,5.256c0,1.105-0.313,2.152-0.938,3.141c-0.625,0.986-1.961,2.332-4.006,4.033
			c-1.059,0.879-1.717,1.588-1.973,2.123S27.1,30.089,27.123,31.47z M22.572,38.214V33.2h5.016v5.014H22.572z"/>
	</g>
</g>
</svg>
