<?xml version="1.0" encoding="iso-8859-1"?>
<!-- Generator: Adobe Illustrator 21.0.2, SVG Export Plug-In . SVG Version: 6.00 Build 0)  -->
<svg version="1.1" id="Layer_1" xmlns="http://www.w3.org/2000/svg" xmlns:xlink="http://www.w3.org/1999/xlink" x="0px" y="0px"
	 viewBox="0 0 49.595 49.595" style="enable-background:new 0 0 49.595 49.595;" xml:space="preserve">
<g>
	<rect style="fill:none;" width="49.595" height="49.595"/>
	<path style="fill:#00395c;" d="M38.795,29.175c0,3.4-2.622,6.154-5.859,6.154H13.189c-0.083,0-0.148-0.008-0.223-0.011
		c-0.04,0-0.079,0.011-0.121,0.011c-2.347,0-4.249-2.216-4.249-4.952c0-2.635,1.77-4.767,3.998-4.921
		c0.847-4.226,4.089-7.372,7.973-7.372c1.235,0,2.403,0.327,3.456,0.895c0.953-1.594,2.526-2.651,4.321-2.651
		c2.918,0,5.284,2.75,5.284,6.154c0,0.204-0.035,0.403-0.054,0.603C36.506,23.425,38.795,26.002,38.795,29.175z"/>
</g>
</svg>
