<?xml version="1.0" encoding="iso-8859-1"?>
<!-- Generator: Adobe Illustrator 15.1.0, SVG Export Plug-In . SVG Version: 6.00 Build 0)  -->
<!DOCTYPE svg PUBLIC "-//W3C//DTD SVG 1.1//EN" "http://www.w3.org/Graphics/SVG/1.1/DTD/svg11.dtd">
<svg version="1.1" id="Ebene_1" xmlns="http://www.w3.org/2000/svg" xmlns:xlink="http://www.w3.org/1999/xlink" x="0px" y="0px"
	 width="50px" height="50px" viewBox="0 0 50 50" style="enable-background:new 0 0 50 50;fill:#00395c" xml:space="preserve">
<g>
	<g>
		<path d="M24.813,21.721c3.959,0,7.164-3.532,7.164-7.899c0-4.364-3.205-7.905-7.164-7.905c-3.953,0-7.158,3.541-7.158,7.905
			C17.654,18.188,20.859,21.721,24.813,21.721z"/>
		<path d="M34.686,44.082l1.462-15.326c0.103-1.061-0.205-2.122-0.859-2.926c-0.651-0.797-1.581-1.254-2.556-1.254H16.889
			c-0.97,0-1.896,0.457-2.551,1.254c-0.649,0.804-0.967,1.865-0.863,2.926l1.469,15.326H34.686z"/>
	</g>
	<rect style="fill:none;" width="50" height="50"/>
</g>
</svg>
